<svg width="19" height="18" viewBox="0 0 19 18" fill="none" xmlns="http://www.w3.org/2000/svg">
<path d="M9.5 0.375C4.74388 0.375 0.875 4.24425 0.875 9C0.875 13.7557 4.74388 17.625 9.5 17.625C14.2561 17.625 18.125 13.7557 18.125 9C18.125 4.24425 14.2561 0.375 9.5 0.375ZM9.5 1.875C13.4289 1.875 16.625 5.07113 16.625 9C16.625 12.9289 13.4289 16.125 9.5 16.125C5.57113 16.125 2.375 12.9289 2.375 9C2.375 5.07113 5.57113 1.875 9.5 1.875ZM7.21265 5.25073C7.06837 5.25783 6.92429 5.30691 6.79956 5.40015C6.46844 5.6484 6.40152 6.11821 6.65015 6.44971L8.5625 9L6.65015 11.5503C6.40115 11.8814 6.46879 12.3512 6.80029 12.5999C6.93529 12.7011 7.09289 12.75 7.24927 12.75C7.47727 12.75 7.70248 12.6462 7.84985 12.4497L9.5 10.2495L11.1501 12.4497C11.2975 12.6462 11.5227 12.75 11.7507 12.75C11.9071 12.75 12.0647 12.7011 12.1997 12.5999C12.5308 12.3516 12.5985 11.8818 12.3499 11.5503L10.4375 9L12.3499 6.44971C12.5989 6.11858 12.5319 5.64877 12.2004 5.40015C11.8682 5.15152 11.3984 5.21954 11.1501 5.55029L9.5 7.75049L7.84985 5.55029C7.6947 5.34334 7.45311 5.23891 7.21265 5.25073Z" fill="white"/>
</svg>
