<svg width="247" height="32" viewBox="0 0 247 32" fill="none" xmlns="http://www.w3.org/2000/svg">
<path d="M59.6585 15.4402H59.6278L59.6447 15.414L59.6585 15.4402Z" fill="white"/>
<path d="M59.6585 15.4402H59.6278L59.6447 15.414L59.6585 15.4402Z" fill="white"/>
<path d="M68.2543 0.44284C68.0654 0.44284 67.8916 0.540369 67.7926 0.701906L60.2796 13.2409C59.9946 13.7179 59.3027 13.7148 59.0208 13.2363L51.6434 0.724764L51.6358 0.711049C51.5383 0.54494 51.3615 0.44284 51.168 0.44284H42.8777C42.4587 0.44284 42.1996 0.896969 42.4114 1.25814L42.4358 1.30081L50.9409 15.7294L50.95 15.7432C51.0476 15.9062 51.2243 16.0053 51.4133 16.0053H57.3292C57.8977 16.0053 58.2497 16.6255 57.9571 17.1132L49.8604 30.629L49.8345 30.6732C49.6196 31.0343 49.8802 31.49 50.2993 31.49H58.5865C58.7755 31.49 58.9507 31.3909 59.0482 31.2294L59.0589 31.2126L64.2098 22.6237L64.219 22.607C64.3195 22.4378 64.3211 22.229 64.2235 22.0584L64.2129 22.0401L61.3052 17.1117C61.0172 16.624 61.3692 16.0068 61.9361 16.0068H67.8642C68.0547 16.0068 68.2315 15.9062 68.329 15.7432L68.3351 15.7325L76.985 1.30081L77.0094 1.25967C77.2242 0.898495 76.9652 0.441314 76.5446 0.441314H68.2513L68.2543 0.44284ZM59.6278 15.4402L59.6447 15.414L59.6585 15.4402H59.6278Z" fill="white"/>
<path d="M14.1426 31.4214L0.0507334 1.03261C-0.115376 0.674489 0.146742 0.264549 0.541441 0.264549H9.49C9.7064 0.264549 9.90146 0.394083 9.9868 0.592194L19.5861 22.9651C19.7735 23.401 20.3922 23.4025 20.5797 22.9651L30.2201 0.590674C30.3055 0.392562 30.5005 0.264549 30.7169 0.264549H39.001C39.3927 0.264549 39.6548 0.668392 39.4948 1.02652L25.8937 31.4153C25.8068 31.6104 25.6132 31.7354 25.3999 31.7354H14.6333C14.423 31.7354 14.231 31.6135 14.1426 31.4214Z" fill="white"/>
<path d="M79.9917 0.805522C79.9917 0.50683 80.2341 0.264526 80.5328 0.264526H100.477C102.732 0.264526 104.587 0.490069 106.039 0.941155C107.491 1.39224 108.64 1.96981 109.486 2.67387C110.332 3.37793 110.917 4.17342 111.242 5.06036C111.566 5.94729 111.728 6.82812 111.728 7.70134V8.16614C111.728 9.15213 111.537 10.0192 111.156 10.766C110.775 11.5127 110.295 12.139 109.718 12.6465C109.139 13.154 108.512 13.5487 107.836 13.8291L107.816 13.8382C107.353 14.0302 107.363 14.6932 107.839 14.8501C108.084 14.9324 108.329 15.0208 108.576 15.1199C109.465 15.4734 110.254 15.9596 110.944 16.5798C111.635 17.2016 112.199 17.9696 112.636 18.887C113.073 19.8044 113.291 20.8971 113.291 22.1665V22.6329C113.291 23.7042 113.101 24.7847 112.72 25.8712C112.339 26.9578 111.676 27.9316 110.733 28.7926C109.788 29.6536 108.497 30.3592 106.862 30.9094C105.227 31.4595 103.139 31.7353 100.601 31.7353H80.5312C80.2325 31.7353 79.9902 31.493 79.9902 31.1943V0.805522H79.9917ZM88.7056 7.27768V11.9059C88.7056 12.2046 88.9479 12.4469 89.2466 12.4469H99.2086C100.534 12.4469 101.437 12.168 101.915 11.6102C102.394 11.0525 102.634 10.4002 102.634 9.65655V9.57121C102.634 8.79857 102.388 8.13261 101.894 7.57485C101.4 7.01709 100.504 6.73669 99.2071 6.73669H89.2451C88.9464 6.73669 88.7041 6.97899 88.7041 7.27768H88.7056ZM88.7056 19.1217V24.2574C88.7056 24.5561 88.9479 24.7984 89.2466 24.7984H99.8852C100.647 24.7984 101.281 24.707 101.789 24.5241C102.296 24.3412 102.698 24.1004 102.994 23.8048C103.29 23.5091 103.502 23.1708 103.628 22.7898C103.755 22.4089 103.819 22.0218 103.819 21.6271V21.4579C103.819 21.0632 103.755 20.6899 103.628 20.3363C103.502 19.9843 103.29 19.681 102.994 19.4265C102.698 19.172 102.296 18.9678 101.789 18.8139C101.281 18.66 100.647 18.5807 99.8852 18.5807H89.2466C88.9479 18.5807 88.7056 18.823 88.7056 19.1217Z" fill="white"/>
<path d="M145 0.805522V6.66049C145 6.95918 144.758 7.20149 144.459 7.20149H125.321C125.023 7.20149 124.78 7.44379 124.78 7.74249V11.6941C124.78 11.9927 125.023 12.235 125.321 12.235H143.098C143.397 12.235 143.639 12.4774 143.639 12.776V18.8002C143.639 19.0989 143.397 19.3412 143.098 19.3412H125.321C125.023 19.3412 124.78 19.5835 124.78 19.8822V24.2574C124.78 24.5561 125.023 24.7984 125.321 24.7984H144.457C144.756 24.7984 144.998 25.0407 144.998 25.3394V31.1943C144.998 31.493 144.756 31.7353 144.457 31.7353H116.736C116.437 31.7353 116.195 31.493 116.195 31.1943V0.805522C116.195 0.50683 116.437 0.264526 116.736 0.264526H144.459C144.758 0.264526 145 0.50683 145 0.805522Z" fill="white"/>
<g clip-path="url(#clip0_501_2834)">
<path d="M165.875 14.9622C165.964 15.1578 166 15.4068 166 15.6558C166 15.8871 165.964 16.1361 165.875 16.3317C165.804 16.5452 165.68 16.723 165.555 16.8831C165.413 17.0432 165.253 17.1499 165.04 17.2388C164.826 17.3278 164.613 17.3633 164.381 17.3633C164.15 17.3633 163.919 17.3278 163.723 17.2388C163.528 17.1499 163.35 17.0432 163.208 16.8831C163.047 16.723 162.958 16.5629 162.87 16.3317C162.798 16.1361 162.763 15.8871 162.763 15.6558C162.763 15.4068 162.798 15.1578 162.87 14.9622C162.958 14.7665 163.065 14.5709 163.208 14.4108C163.35 14.2507 163.51 14.144 163.723 14.055C163.919 13.9661 164.15 13.9127 164.381 13.9127C164.613 13.9127 164.844 13.9661 165.022 14.055C165.217 14.144 165.395 14.2507 165.555 14.4108C165.698 14.5709 165.804 14.7487 165.875 14.9622ZM175 15.2645C175 20.2448 170.98 24.2645 166 24.2645C161.02 24.2645 157 20.2448 157 15.2645C157 10.2843 161.02 6.26453 166 6.26453C170.98 6.26453 175 10.2843 175 15.2645V15.2645ZM166.872 15.638C166.872 15.2645 166.8 14.9266 166.676 14.6242C166.551 14.3396 166.409 14.055 166.178 13.8594C165.982 13.6459 165.715 13.4681 165.431 13.3436C165.128 13.2191 164.808 13.1479 164.453 13.1479C164.257 13.1479 164.079 13.1835 163.901 13.2191C163.706 13.2724 163.563 13.3258 163.421 13.3969C163.279 13.4859 163.154 13.557 163.047 13.6282C162.941 13.7349 162.852 13.8238 162.798 13.895V11.476H161.945V18.0214H162.763V17.3811C162.763 17.3811 162.905 17.559 162.994 17.6301C163.083 17.7013 163.208 17.7902 163.35 17.8436C163.492 17.9325 163.652 17.9859 163.83 18.0392C164.008 18.0926 164.186 18.1104 164.399 18.1104C164.755 18.1104 165.093 18.0392 165.395 17.9147C165.698 17.7902 165.964 17.6124 166.16 17.3811C166.374 17.1855 166.534 16.9009 166.658 16.5985C166.783 16.2961 166.854 15.976 166.854 15.6203L166.872 15.638ZM171.407 13.2369H170.518L169.166 16.812L167.743 13.2369H166.8L168.739 17.9325L168.117 19.6044H168.953L171.425 13.2369H171.407Z" fill="white"/>
</g>
<path d="M191.898 29.6338C191.898 29.9918 191.694 30.1963 191.335 30.1963L187.361 30.1963C185.126 30.1963 184 29.5315 184 28.236L184 23.4972C184 23.3097 184.068 22.9006 184.682 22.9006C185.297 22.9006 185.382 23.3267 185.382 23.4972L185.382 28.236C185.382 28.7474 186.03 29.0031 187.327 29.0031L191.335 29.0031C191.694 29.0031 191.898 29.2247 191.898 29.6168L191.898 29.6338ZM193.178 22.9006C192.53 22.9006 192.461 23.3267 192.461 23.4972L192.461 29.6338C192.461 29.8213 192.53 30.2304 193.161 30.2304C193.792 30.2304 193.86 29.8043 193.86 29.6338L193.86 23.4972C193.86 23.1051 193.621 22.9006 193.195 22.9006L193.178 22.9006ZM205.751 22.9006C205.614 22.9006 205.478 22.9347 205.324 23.0029C205.188 23.071 205.068 23.1563 204.983 23.2756L200.803 28.7645L196.556 23.3267C196.334 23.054 196.061 22.9006 195.737 22.9006C195.259 22.9006 194.986 23.1733 194.986 23.6677L194.986 29.6338C194.986 30.0259 195.242 30.2475 195.669 30.2475C196.095 30.2475 196.351 30.0259 196.351 29.6338L196.351 25.1336L199.933 29.8043C200.121 30.0941 200.428 30.2304 200.786 30.2304L200.786 30.2475C201.128 30.2475 201.4 30.0941 201.622 29.8213L205.154 25.1507L205.154 29.6338C205.154 30.0259 205.392 30.2475 205.802 30.2475C206.45 30.2475 206.518 29.8213 206.518 29.6338L206.518 23.6847C206.518 23.1733 206.245 22.9006 205.734 22.9006L205.751 22.9006ZM208.378 22.9006C207.729 22.9006 207.661 23.3267 207.661 23.4972L207.661 29.6338C207.661 29.8213 207.729 30.2304 208.361 30.2304C208.992 30.2304 209.06 29.8043 209.06 29.6338L209.06 23.4972C209.06 23.1051 208.821 22.9006 208.378 22.9006ZM246.198 26.395C245.703 26.1223 244.97 25.9859 243.981 25.9859L241.865 25.9859C240.978 25.9859 240.552 25.7984 240.552 25.4234L240.552 24.895C240.552 24.5882 240.654 24.1961 241.541 24.1961L246.215 24.1961C246.574 24.1961 246.778 23.9745 246.778 23.6165C246.778 23.2586 246.574 23.037 246.215 23.037L241.695 23.037C240.023 23.037 239.17 23.6506 239.17 24.8438L239.17 25.5257C239.17 26.5996 240.142 27.1451 242.036 27.1451L244.117 27.1451C245.618 27.1451 245.618 27.6906 245.618 27.861L245.618 28.4406C245.618 28.594 245.618 29.0883 244.373 29.0883L239.665 29.0883C239.323 29.0883 239.119 29.2929 239.119 29.6509C239.119 30.0429 239.323 30.2645 239.665 30.2645L244.236 30.2645C246.062 30.2645 247 29.6679 247 28.4917L247 27.7587C247 27.1451 246.727 26.6848 246.198 26.395V26.395ZM237.089 26.395C236.577 26.1223 235.86 25.9859 234.871 25.9859L232.755 25.9859C231.885 25.9859 231.442 25.7984 231.442 25.4234L231.442 24.895C231.442 24.5882 231.544 24.1961 232.431 24.1961L237.106 24.1961C237.464 24.1961 237.669 23.9745 237.669 23.6165C237.669 23.2586 237.464 23.037 237.106 23.037L232.585 23.037C230.913 23.037 230.06 23.6506 230.06 24.8438L230.06 25.5257C230.06 26.5996 231.015 27.1451 232.926 27.1451L235.007 27.1451C236.509 27.1451 236.509 27.6906 236.509 27.861L236.509 28.4406C236.509 28.594 236.509 29.0883 235.263 29.0883L230.555 29.0883C230.214 29.0883 230.009 29.2929 230.009 29.6509C230.009 30.0429 230.214 30.2645 230.555 30.2645L235.127 30.2645C236.969 30.2645 237.89 29.6679 237.89 28.4917L237.89 27.7587C237.89 27.1451 237.617 26.6848 237.089 26.395V26.395ZM226.375 22.9688L221.957 22.9688C221.599 22.9688 221.394 23.1904 221.394 23.5654C221.394 23.9234 221.599 24.1279 221.957 24.1279L226.341 24.1279C227.842 24.1279 227.842 24.6563 227.842 24.8268L227.842 25.9518L221.957 25.9518C221.803 25.9518 221.428 26.003 221.428 26.5485C221.428 27.0939 221.803 27.1451 221.957 27.1451L227.842 27.1451L227.842 28.3213C227.842 28.7474 227.041 29.0031 225.693 29.0031L221.07 29.0031C219.79 29.0031 219.125 28.7474 219.125 28.236L219.125 23.4972C219.125 23.3097 219.057 22.9006 218.426 22.9006C217.794 22.9006 217.743 23.3267 217.743 23.4972L217.743 28.236C217.743 29.5315 218.869 30.1793 221.104 30.1793L225.079 30.1793C225.079 30.1793 225.13 30.1793 225.147 30.1793L226.307 30.1793C228.269 30.1793 229.258 29.5486 229.258 28.3213L229.258 24.8098C229.258 23.5995 228.303 22.9688 226.409 22.9688L226.375 22.9688ZM216.805 22.9688L210.118 22.9688C209.76 22.9688 209.555 23.1733 209.555 23.5142C209.555 23.9063 209.76 24.1109 210.118 24.1109L212.779 24.1109L212.779 29.6338C212.779 30.0259 213.035 30.2475 213.461 30.2475C213.888 30.2475 214.161 30.0259 214.161 29.6338L214.161 24.1109L216.805 24.1109C217.146 24.1109 217.351 23.8893 217.351 23.5142C217.351 23.1733 217.146 22.9688 216.805 22.9688ZM229.395 8.46249C229.395 8.65 229.395 8.85456 229.361 9.05911C229.327 9.38299 229.241 9.84323 228.968 10.2523C228.832 10.4569 228.661 10.6274 228.457 10.7296C228.269 10.8319 228.047 10.9171 227.808 10.9512C227.331 11.0194 226.904 10.9512 226.563 10.866C226.222 10.7808 225.864 10.6785 225.454 10.508C224.84 10.2694 224.209 9.96256 223.407 9.5364C222.981 9.3148 222.571 9.07616 222.145 8.83751C221.991 8.95683 221.838 9.07616 221.701 9.19548C220.746 9.96256 219.807 10.7637 218.886 11.5478C217.59 12.6558 216.242 13.7979 214.86 14.8718C213.786 15.6901 212.523 16.6276 211.124 17.3776C210.323 17.7867 209.64 18.0595 208.958 18.2129C208.6 18.2981 208.258 18.3322 207.917 18.3322C207.849 18.3322 207.781 18.3322 207.729 18.3322C207.269 18.3152 206.842 18.1958 206.467 18.0254C206.297 17.9402 206.126 17.8379 205.904 17.6845C205.751 17.5651 205.58 17.4117 205.426 17.2413C205.171 16.9515 204.932 16.6106 204.71 16.2185C204.386 15.5878 204.147 14.8718 203.959 13.9854C203.823 13.3377 203.721 12.6218 203.635 11.7183C203.584 11.0024 203.55 10.2694 203.55 9.45117C203.55 8.63296 203.584 7.88293 203.652 7.16699C203.755 6.22945 203.891 5.53056 204.113 4.86576C204.198 4.61007 204.284 4.37142 204.369 4.14982C203.567 4.83166 202.799 5.73511 202.032 6.89425C201.998 6.97948 201.929 7.16699 201.742 7.11585C201.554 7.04766 201.605 6.84311 201.656 6.58742C202.219 3.45093 203.396 1.47357 205.154 0.672402C207.337 -0.299229 210.34 0.450803 214.57 3.07591C215.219 3.41683 215.85 3.7748 216.327 4.06459C217.641 4.84871 218.937 5.70102 220.097 6.45105L220.541 6.74083C221.172 7.14994 221.82 7.57609 222.469 7.96816C223.151 7.43973 224.038 6.77493 225.011 6.2124C225.386 5.9908 225.71 5.82034 226.034 5.70102C226.478 5.51351 226.836 5.41123 227.177 5.37714C227.399 5.36009 227.621 5.37714 227.825 5.41123C228.047 5.46237 228.252 5.56465 228.439 5.68397C228.747 5.92262 228.968 6.26354 229.139 6.74083C229.275 7.14994 229.344 7.57609 229.378 7.89997C229.395 8.07043 229.412 8.27499 229.412 8.47954L229.395 8.46249ZM221.684 8.56477C221.07 8.2068 220.439 7.83179 219.825 7.45677L219.552 7.28631C218.187 6.4681 216.976 5.75216 215.73 5.07031C214.963 4.64416 214.331 4.32028 213.734 4.03049C213.035 3.70662 212.404 3.43388 211.807 3.21228C211.056 2.93954 210.408 2.75203 209.794 2.6668C209.452 2.61566 209.128 2.58157 208.821 2.58157C208.48 2.58157 208.173 2.61566 207.883 2.68385C207.286 2.83726 206.774 3.1441 206.399 3.5873C206.024 4.0305 205.716 4.59302 205.495 5.27486C205.017 6.72379 204.915 8.34317 204.881 9.43413C204.829 11.1387 204.915 12.5195 205.119 13.7298C205.256 14.5139 205.444 15.1616 205.699 15.7071C206.024 16.3719 206.433 16.8492 206.911 17.0878C207.167 17.2242 207.457 17.3094 207.781 17.3435C208.088 17.3606 208.429 17.3435 208.753 17.2924C209.35 17.1901 209.998 16.9685 210.732 16.6276C211.312 16.3549 211.943 16.0139 212.626 15.5707C213.188 15.2128 213.786 14.8207 214.434 14.3434C216.089 13.1502 217.675 11.8206 219.227 10.5421C219.927 9.96256 220.626 9.38299 221.343 8.80342L221.65 8.56477L221.684 8.56477ZM228.747 8.44545C228.747 8.25794 228.747 8.07043 228.729 7.93406C228.695 7.50791 228.644 7.20108 228.542 6.91129C228.422 6.55333 228.269 6.28059 228.064 6.12717C227.859 5.95671 227.552 5.88852 227.228 5.90557C226.938 5.92262 226.614 6.00785 226.239 6.16126C225.932 6.28059 225.625 6.434 225.284 6.63856C224.738 6.94539 224.175 7.3204 223.458 7.84883C223.288 7.96816 223.117 8.10452 222.946 8.22385C223.253 8.41136 223.543 8.59886 223.851 8.76933C224.618 9.21253 225.215 9.51936 225.778 9.758C226.136 9.91142 226.461 10.0307 226.768 10.116C227.143 10.2182 227.45 10.2523 227.723 10.2182C228.013 10.1842 228.252 10.0478 228.422 9.82619C228.576 9.62163 228.678 9.33185 228.729 8.93979C228.747 8.76932 228.764 8.58182 228.781 8.4284L228.747 8.44545Z" fill="white"/>
<defs>
<clipPath id="clip0_501_2834">
<rect width="18" height="18" fill="white" transform="translate(157 6.26453)"/>
</clipPath>
</defs>
</svg>
