<svg width="128" height="28" viewBox="0 0 128 28" fill="none" xmlns="http://www.w3.org/2000/svg">
<path d="M52.6641 13.5058H52.6369L52.6519 13.4827L52.6641 13.5058Z" fill="black"/>
<path d="M52.6641 13.5058H52.6369L52.6519 13.4827L52.6641 13.5058Z" fill="black"/>
<path d="M60.2521 0.266783C60.0853 0.266783 59.9319 0.352877 59.8445 0.495476L53.2123 11.5643C52.9608 11.9854 52.35 11.9827 52.1011 11.5603L45.5887 0.515654L45.582 0.503547C45.4959 0.356913 45.3398 0.266783 45.169 0.266783H37.8507C37.4808 0.266783 37.2521 0.667669 37.439 0.986498L37.4606 1.02417L44.9685 13.7612L44.9766 13.7733C45.0627 13.9172 45.2187 14.0047 45.3855 14.0047H50.6079C51.1097 14.0047 51.4204 14.5522 51.1621 14.9827L44.0147 26.9139L43.9919 26.9529C43.8022 27.2717 44.0322 27.6739 44.4022 27.6739H51.7177C51.8845 27.6739 52.0392 27.5865 52.1253 27.4439L52.1348 27.4291L56.6818 19.8472L56.6898 19.8324C56.7786 19.683 56.78 19.4987 56.6939 19.3481L56.6845 19.3319L54.1177 14.9813C53.8634 14.5508 54.1742 14.006 54.6746 14.006H59.9077C60.0759 14.006 60.2319 13.9172 60.318 13.7733L60.3234 13.7639L67.9592 1.02417L67.9807 0.987845C68.1704 0.669016 67.9417 0.265436 67.5704 0.265436H60.2494L60.2521 0.266783ZM52.6369 13.5058L52.6519 13.4827L52.6648 13.5056L52.6369 13.5058Z" fill="black"/>
<path d="M12.4845 27.6134L0.0447853 0.787411C-0.101849 0.471273 0.129537 0.109395 0.477962 0.109395H8.37738C8.56841 0.109395 8.7406 0.223742 8.81594 0.398627L17.2898 20.1485C17.4552 20.5333 18.0014 20.5346 18.1669 20.1485L26.6771 0.397284C26.7524 0.222399 26.9246 0.109395 27.1156 0.109395H34.4285C34.7742 0.109395 35.0056 0.465891 34.8644 0.782029L22.8578 27.608C22.7812 27.7802 22.6103 27.8905 22.422 27.8905H12.9177C12.732 27.8905 12.5625 27.7829 12.4845 27.6134Z" fill="black"/>
<path d="M70.6134 0.586944C70.6134 0.323271 70.8273 0.109375 71.091 0.109375H88.6965C90.6875 0.109375 92.3247 0.308475 93.6067 0.706675C94.8888 1.10487 95.9031 1.61473 96.6497 2.23624C97.3964 2.85776 97.9129 3.55999 98.1995 4.34294C98.486 5.12588 98.6286 5.90344 98.6286 6.67428V7.08459C98.6286 7.95498 98.4605 8.72044 98.1241 9.37962C97.7878 10.0388 97.3641 10.5917 96.8542 11.0397C96.343 11.4877 95.7901 11.8361 95.1928 12.0836L95.1753 12.0917C94.7664 12.2612 94.7758 12.8464 95.1955 12.9849C95.4121 13.0576 95.6287 13.1356 95.8466 13.2231C96.6309 13.5352 97.3278 13.9643 97.9372 14.5118C98.5466 15.0607 99.0443 15.7387 99.4304 16.5486C99.8165 17.3584 100.009 18.323 100.009 19.4436V19.8552C100.009 20.8009 99.8407 21.7547 99.5044 22.7139C99.1681 23.6731 98.5829 24.5327 97.7502 25.2928C96.9161 26.0529 95.7766 26.6757 94.3332 27.1614C92.8897 27.647 91.0467 27.8905 88.8068 27.8905H71.0896C70.826 27.8905 70.6121 27.6766 70.6121 27.4129V0.586944H70.6134ZM78.3057 6.3003V10.3859C78.3057 10.6496 78.5196 10.8635 78.7832 10.8635H87.5772C88.7476 10.8635 89.544 10.6173 89.9664 10.1249C90.3889 9.63253 90.6014 9.05676 90.6014 8.40026V8.32493C90.6014 7.64288 90.3835 7.055 89.9476 6.56263C89.5117 6.07026 88.7207 5.82273 87.5759 5.82273H78.7819C78.5182 5.82273 78.3043 6.03663 78.3043 6.3003H78.3057ZM78.3057 16.7557V21.2893C78.3057 21.553 78.5196 21.7669 78.7832 21.7669H88.1745C88.8472 21.7669 89.4068 21.6861 89.8548 21.5247C90.3028 21.3633 90.6579 21.1507 90.9189 20.8897C91.1799 20.6288 91.3669 20.3301 91.4785 19.9938C91.5902 19.6575 91.6467 19.3158 91.6467 18.9673V18.818C91.6467 18.4696 91.5902 18.14 91.4785 17.8279C91.3669 17.5171 91.1799 17.2494 90.9189 17.0248C90.6579 16.8001 90.3028 16.6199 89.8548 16.484C89.4068 16.3481 88.8472 16.2782 88.1745 16.2782H78.7832C78.5196 16.2782 78.3057 16.4921 78.3057 16.7557Z" fill="black"/>
<path d="M128 0.586944V5.75547C128 6.01914 127.786 6.23304 127.522 6.23304H110.629C110.365 6.23304 110.151 6.44694 110.151 6.71061V10.1989C110.151 10.4626 110.365 10.6765 110.629 10.6765H126.321C126.585 10.6765 126.799 10.8904 126.799 11.154V16.4719C126.799 16.7355 126.585 16.9494 126.321 16.9494H110.629C110.365 16.9494 110.151 17.1633 110.151 17.427V21.2893C110.151 21.553 110.365 21.7669 110.629 21.7669H127.521C127.785 21.7669 127.999 21.9808 127.999 22.2444V27.4129C127.999 27.6766 127.785 27.8905 127.521 27.8905H103.049C102.786 27.8905 102.572 27.6766 102.572 27.4129V0.586944C102.572 0.323271 102.786 0.109375 103.049 0.109375H127.522C127.786 0.109375 128 0.323271 128 0.586944Z" fill="black"/>
</svg>
