<svg width="24" height="24" viewBox="0 0 24 24" fill="none" xmlns="http://www.w3.org/2000/svg">
<path d="M7.875 18C7.37772 18 6.90081 18.1975 6.54917 18.5492C6.19754 18.9008 6 19.3777 6 19.875C6 20.3723 6.19754 20.8492 6.54917 21.2008C6.90081 21.5525 7.37772 21.75 7.875 21.75C8.37228 21.75 8.84919 21.5525 9.20082 21.2008C9.55246 20.8492 9.75 20.3723 9.75 19.875C9.75 19.3777 9.55246 18.9008 9.20082 18.5492C8.84919 18.1975 8.37228 18 7.875 18ZM17.625 18C17.1277 18 16.6508 18.1975 16.2992 18.5492C15.9475 18.9008 15.75 19.3777 15.75 19.875C15.75 20.3723 15.9475 20.8492 16.2992 21.2008C16.6508 21.5525 17.1277 21.75 17.625 21.75C18.1223 21.75 18.5992 21.5525 18.9508 21.2008C19.3025 20.8492 19.5 20.3723 19.5 19.875C19.5 19.3777 19.3025 18.9008 18.9508 18.5492C18.5992 18.1975 18.1223 18 17.625 18ZM4.68338 5.28562L4.30912 3.69562C4.11 2.8485 3.35437 2.25 2.48438 2.25H0.375L0.75 3.75H2.48438C2.65838 3.75 2.8095 3.86962 2.84925 4.03912L5.50912 15.3439C5.66888 16.0241 6.26925 16.5 6.969 16.5H18.8693C19.6005 16.5 20.2219 15.9769 20.3468 15.2572L21.8816 6.43237L4.68338 5.28562Z" fill="#D00D29"/>
</svg>
